<?xml version="1.0" encoding="UTF-8" standalone="no"?><!DOCTYPE svg PUBLIC "-//W3C//DTD SVG 1.1//EN" "http://www.w3.org/Graphics/SVG/1.1/DTD/svg11.dtd"><svg width="100%" height="100%" viewBox="0 0 4916 1136" version="1.1" xmlns="http://www.w3.org/2000/svg" xmlns:xlink="http://www.w3.org/1999/xlink" xml:space="preserve" xmlns:serif="http://www.serif.com/" style="fill-rule:evenodd;clip-rule:evenodd;stroke-linejoin:round;stroke-miterlimit:2;"><g><path d="M5.208,1111.38l0,-1086.89l143.832,0l0,958.629l535.29,0l0,128.262l-679.122,0Z" style="fill:none;fill-rule:nonzero;stroke:#fff;stroke-width:10.42px;"/><path d="M811.85,582.017c0,-180.407 48.439,-321.644 145.315,-423.71c96.876,-102.066 221.925,-153.099 375.148,-153.099c100.336,0 190.786,23.972 271.352,71.916c80.565,47.944 141.978,114.793 184.237,200.548c42.26,85.756 63.39,183.002 63.39,291.741c0,110.221 -22.242,208.827 -66.726,295.818c-44.484,86.991 -107.503,152.852 -189.057,197.583c-81.554,44.731 -169.533,67.097 -263.938,67.097c-102.313,0 -193.752,-24.714 -274.317,-74.14c-80.566,-49.427 -141.608,-116.894 -183.126,-202.402c-41.518,-85.508 -62.278,-175.959 -62.278,-271.352Zm148.28,2.224c0,130.98 35.217,234.158 105.65,309.534c70.433,75.376 158.783,113.063 265.05,113.063c108.244,0 197.336,-38.058 267.274,-114.175c69.939,-76.117 104.908,-184.114 104.908,-323.991c0,-88.474 -14.951,-165.703 -44.855,-231.688c-29.903,-65.984 -73.645,-117.141 -131.227,-153.469c-57.582,-36.329 -122.207,-54.493 -193.876,-54.493c-101.819,0 -189.427,34.969 -262.826,104.908c-73.398,69.939 -110.098,186.709 -110.098,350.311Z" style="fill:none;fill-rule:nonzero;stroke:#fff;stroke-width:10.42px;"/><path d="M2545.24,685.071l0,-127.52l460.409,-0.742l0,403.321c-70.68,56.347 -143.584,98.73 -218.713,127.15c-75.128,28.42 -152.233,42.631 -231.316,42.631c-106.761,0 -203.761,-22.86 -290.999,-68.58c-87.238,-45.719 -153.099,-111.827 -197.583,-198.324c-44.484,-86.497 -66.726,-183.126 -66.726,-289.887c0,-105.773 22.119,-204.503 66.355,-296.189c44.237,-91.686 107.874,-159.771 190.911,-204.255c83.036,-44.484 178.677,-66.726 286.921,-66.726c78.588,0 149.639,12.727 213.152,38.182c63.513,25.454 113.311,60.918 149.392,106.391c36.082,45.472 63.513,104.784 82.295,177.935l-129.744,35.587c-16.311,-55.357 -36.576,-98.853 -60.795,-130.486c-24.219,-31.633 -58.818,-56.964 -103.796,-75.993c-44.978,-19.029 -94.899,-28.544 -149.763,-28.544c-65.737,0 -122.578,10.009 -170.521,30.027c-47.944,20.017 -86.62,46.337 -116.029,78.959c-29.409,32.621 -52.269,68.455 -68.58,107.502c-27.679,67.221 -41.518,140.125 -41.518,218.713c0,96.876 16.681,177.936 50.044,243.179c33.363,65.243 81.925,113.681 145.685,145.314c63.761,31.633 131.475,47.45 203.144,47.45c62.277,0 123.072,-11.986 182.384,-35.958c59.312,-23.972 104.29,-49.55 134.934,-76.735l0,-202.402l-319.543,0Z" style="fill:none;fill-rule:nonzero;stroke:#fff;stroke-width:10.42px;"/><rect x="3658.08" y="24.485" width="143.831" height="1086.89" style="fill:none;fill-rule:nonzero;stroke:#fff;stroke-width:10.42px;"/><path d="M4053.99,1111.38l0,-1086.89l147.539,0l570.877,853.35l0,-853.35l137.9,0l0,1086.89l-147.538,0l-570.877,-854.092l0,854.092l-137.901,0Z" style="fill:none;fill-rule:nonzero;stroke:#fff;stroke-width:10.42px;"/></g></svg>