<?xml version="1.0" encoding="UTF-8" standalone="no"?><!DOCTYPE svg PUBLIC "-//W3C//DTD SVG 1.1//EN" "http://www.w3.org/Graphics/SVG/1.1/DTD/svg11.dtd"><svg width="100%" height="100%" viewBox="0 0 1332 1332" version="1.1" xmlns="http://www.w3.org/2000/svg" xmlns:xlink="http://www.w3.org/1999/xlink" xml:space="preserve" xmlns:serif="http://www.serif.com/" style="fill-rule:evenodd;clip-rule:evenodd;stroke-linecap:round;stroke-linejoin:round;stroke-miterlimit:1.5;"><rect x="2.083" y="2.083" width="1327.83" height="1327.83" style="fill:none;"/><clipPath id="_clip1"><rect x="2.083" y="2.083" width="1327.83" height="1327.83"/></clipPath><g clip-path="url(#_clip1)"><path d="M-107.244,1029.4c0,0 732.643,-555.837 519.813,-227.919c-212.829,327.919 86.813,-660.042 212.636,-139.531c125.823,520.511 202.227,-591.843 239.275,-1.735c37.049,590.107 -136.647,-152.265 75.794,-103.41c212.441,48.856 104.095,-329.744 501.423,-315.462" style="fill:none;stroke:#fff;stroke-width:4.17px;"/><path d="M-90.486,1037.3c0,0 732.642,-555.837 519.813,-227.918c-212.829,327.918 86.812,-660.043 212.635,-139.532c125.824,520.512 202.228,-591.843 239.276,-1.735c37.048,590.108 -136.648,-152.265 75.794,-103.409c212.441,48.855 104.094,-329.745 501.423,-315.462" style="fill:none;stroke:#fff;stroke-width:4.17px;"/><path d="M-77.331,1046.19c0,0 732.642,-555.837 519.813,-227.919c-212.829,327.919 86.812,-660.043 212.635,-139.531c125.823,520.511 202.228,-591.844 239.276,-1.736c37.048,590.108 -136.648,-152.264 75.793,-103.409c212.442,48.856 104.095,-329.745 501.424,-315.462" style="fill:none;stroke:#fff;stroke-width:4.17px;"/></g><rect x="2.083" y="2.083" width="1327.83" height="1327.83" style="fill:none;stroke:#fff;stroke-width:4.17px;"/></svg>