<?xml version="1.0" encoding="UTF-8" standalone="no"?><!DOCTYPE svg PUBLIC "-//W3C//DTD SVG 1.1//EN" "http://www.w3.org/Graphics/SVG/1.1/DTD/svg11.dtd"><svg width="100%" height="100%" viewBox="0 0 5550 5550" version="1.1" xmlns="http://www.w3.org/2000/svg" xmlns:xlink="http://www.w3.org/1999/xlink" xml:space="preserve" xmlns:serif="http://www.serif.com/" style="fill-rule:evenodd;clip-rule:evenodd;stroke-linecap:round;stroke-linejoin:round;stroke-miterlimit:1.5;"><g id="Layer1"><rect x="-393.046" y="-340.956" width="7148.23" height="6276.9" style="fill:#fff;"/><g><path d="M-446.85,4289.17c0,0 3052.68,-2315.99 2165.89,-949.663c-886.788,1366.33 361.72,-2750.18 885.983,-581.379c524.262,2168.8 842.612,-2466.01 996.979,-7.229c154.371,2458.78 -569.363,-634.438 315.808,-430.875c885.171,203.566 433.73,-1373.93 2089.26,-1314.42" style="fill:none;stroke:#6c6c6c;stroke-width:17.38px;"/><path d="M-377.025,4322.08c0,0 3052.68,-2315.99 2165.89,-949.658c-886.788,1366.33 361.716,-2750.18 885.979,-581.383c524.266,2168.8 842.616,-2466.01 996.983,-7.23c154.367,2458.78 -569.367,-634.437 315.808,-430.87c885.171,203.562 433.725,-1373.94 2089.26,-1314.42" style="fill:none;stroke:#6c6c6c;stroke-width:17.38px;"/><path d="M-322.213,4359.13c0,0 3052.68,-2315.99 2165.89,-949.662c-886.788,1366.33 361.717,-2750.18 885.979,-581.38c524.263,2168.8 842.617,-2466.02 996.984,-7.233c154.366,2458.78 -569.367,-634.433 315.804,-430.871c885.175,203.567 433.729,-1373.94 2089.27,-1314.42" style="fill:none;stroke:#6c6c6c;stroke-width:17.38px;"/></g></g></svg>