<?xml version="1.0" encoding="UTF-8" standalone="no"?><!DOCTYPE svg PUBLIC "-//W3C//DTD SVG 1.1//EN" "http://www.w3.org/Graphics/SVG/1.1/DTD/svg11.dtd"><svg width="100%" height="100%" viewBox="0 0 5285 982" version="1.1" xmlns="http://www.w3.org/2000/svg" xmlns:xlink="http://www.w3.org/1999/xlink" xml:space="preserve" xmlns:serif="http://www.serif.com/" style="fill-rule:evenodd;clip-rule:evenodd;stroke-linejoin:round;stroke-miterlimit:2;"><g><path d="M5.208,658.756l117.255,-10.251c5.553,46.987 18.474,85.538 38.764,115.652c20.29,30.115 51.793,54.462 94.508,73.044c42.716,18.581 90.771,27.872 144.165,27.872c47.414,0 89.276,-7.048 125.584,-21.145c36.308,-14.096 63.326,-33.424 81.053,-57.986c17.727,-24.561 26.59,-51.365 26.59,-80.412c0,-29.474 -8.543,-55.21 -25.629,-77.208c-17.086,-21.999 -45.279,-40.473 -84.577,-55.424c-25.202,-9.824 -80.946,-25.095 -167.231,-45.812c-86.286,-20.717 -146.728,-40.26 -181.328,-58.627c-44.851,-23.494 -78.276,-52.647 -100.275,-87.46c-21.998,-34.814 -32.998,-73.792 -32.998,-116.934c0,-47.415 13.456,-91.732 40.367,-132.953c26.91,-41.22 66.209,-72.509 117.895,-93.867c51.685,-21.358 109.138,-32.037 172.357,-32.037c69.626,0 131.03,11.213 184.211,33.639c53.181,22.426 94.081,55.423 122.7,98.993c28.62,43.57 43.997,92.907 46.133,148.01l-119.176,8.97c-6.408,-59.375 -28.086,-104.226 -65.035,-134.554c-36.949,-30.328 -91.518,-45.492 -163.707,-45.492c-75.18,0 -129.962,13.776 -164.348,41.327c-34.386,27.552 -51.579,60.763 -51.579,99.634c0,33.745 12.174,61.511 36.521,83.295c23.921,21.785 86.393,44.104 187.415,66.957c101.022,22.853 170.328,42.822 207.918,59.909c54.676,25.202 95.042,57.132 121.099,95.789c26.056,38.658 39.084,83.189 39.084,133.593c0,49.978 -14.309,97.071 -42.929,141.282c-28.619,44.211 -69.733,78.597 -123.341,103.158c-53.608,24.562 -113.944,36.842 -181.007,36.842c-85.004,0 -156.232,-12.387 -213.685,-37.162c-57.452,-24.775 -102.517,-62.045 -135.195,-111.808c-32.677,-49.764 -49.87,-106.042 -51.579,-168.834Z" style="fill:none;fill-rule:nonzero;stroke:#fff;stroke-width:10.42px;"/><rect x="943.883" y="21.227" width="124.302" height="939.315" style="fill:none;fill-rule:nonzero;stroke:#fff;stroke-width:10.42px;"/><path d="M1726.86,592.12l0,-110.206l397.896,-0.641l0,348.559c-61.084,48.696 -124.089,85.325 -189.017,109.886c-64.927,24.562 -131.564,36.842 -199.909,36.842c-92.265,0 -176.094,-19.756 -251.487,-59.268c-75.393,-39.511 -132.312,-96.644 -170.756,-171.396c-38.444,-74.752 -57.666,-158.261 -57.666,-250.527c0,-91.411 19.115,-176.735 57.346,-255.973c38.23,-79.237 93.226,-138.078 164.989,-176.522c71.762,-38.444 154.416,-57.666 247.963,-57.666c67.918,0 129.322,11 184.211,32.998c54.89,21.999 97.926,52.647 129.108,91.945c31.183,39.299 54.89,90.557 71.122,153.776l-112.129,30.756c-14.096,-47.842 -31.609,-85.432 -52.54,-112.769c-20.931,-27.338 -50.831,-49.23 -89.703,-65.676c-38.871,-16.445 -82.014,-24.668 -129.428,-24.668c-56.811,0 -105.934,8.65 -147.368,25.95c-41.435,17.3 -74.86,40.046 -100.275,68.238c-25.416,28.192 -45.172,59.161 -59.268,92.906c-23.921,58.093 -35.881,121.099 -35.881,189.017c0,83.722 14.416,153.776 43.249,210.16c28.833,56.385 70.801,98.246 125.904,125.584c55.104,27.338 113.624,41.007 175.561,41.007c53.822,0 106.362,-10.359 157.621,-31.076c51.259,-20.717 90.13,-42.822 116.613,-66.316l0,-174.92l-276.156,0Z" style="fill:none;fill-rule:nonzero;stroke:#fff;stroke-width:10.42px;"/><path d="M2306.72,960.542l0,-939.315l127.506,0l493.365,737.484l0,-737.484l119.176,0l0,939.315l-127.506,0l-493.365,-738.125l0,738.125l-119.176,0Z" style="fill:none;fill-rule:nonzero;stroke:#fff;stroke-width:10.42px;"/><path d="M4231.49,21.227l124.303,0l0,542.701c0,94.401 -10.679,169.367 -32.037,224.897c-21.358,55.531 -59.909,100.702 -115.652,135.516c-55.744,34.813 -128.895,52.219 -219.452,52.219c-87.994,0 -159.969,-15.164 -215.927,-45.492c-55.957,-30.328 -95.896,-74.218 -119.817,-131.671c-23.921,-57.452 -35.881,-135.942 -35.881,-235.469l0,-542.701l124.302,0l0,542.06c0,81.587 7.582,141.709 22.746,180.367c15.164,38.657 41.221,68.451 78.17,89.382c36.949,20.931 82.121,31.396 135.515,31.396c91.411,0 156.553,-20.717 195.424,-62.151c38.871,-41.434 58.306,-121.099 58.306,-238.994l0,-542.06Z" style="fill:none;fill-rule:nonzero;stroke:#fff;stroke-width:10.42px;"/><path d="M4562.75,960.542l0,-939.315l354.325,0c62.365,0 109.993,2.99 142.884,8.97c46.133,7.689 84.79,22.319 115.973,43.89c31.182,21.572 56.277,51.793 75.286,90.664c19.008,38.871 28.512,81.587 28.512,128.147c0,79.878 -25.415,147.475 -76.247,202.792c-50.831,55.316 -142.67,82.975 -275.515,82.975l-240.916,0l0,381.877l-124.302,0Zm124.302,-492.724l242.838,0c80.305,0 137.33,-14.951 171.076,-44.851c33.745,-29.901 50.618,-71.976 50.618,-126.225c0,-39.298 -9.932,-72.937 -29.794,-100.915c-19.863,-27.979 -46.026,-46.454 -78.49,-55.424c-20.931,-5.553 -59.588,-8.329 -115.973,-8.329l-240.275,0l0,335.744Z" style="fill:none;fill-rule:nonzero;stroke:#fff;stroke-width:10.42px;"/></g></svg>