<?xml version="1.0" encoding="UTF-8" standalone="no"?><!DOCTYPE svg PUBLIC "-//W3C//DTD SVG 1.1//EN" "http://www.w3.org/Graphics/SVG/1.1/DTD/svg11.dtd"><svg width="100%" height="100%" viewBox="0 0 6589 3365" version="1.1" xmlns="http://www.w3.org/2000/svg" xmlns:xlink="http://www.w3.org/1999/xlink" xml:space="preserve" xmlns:serif="http://www.serif.com/" style="fill-rule:evenodd;clip-rule:evenodd;stroke-linecap:round;stroke-linejoin:round;stroke-miterlimit:1.5;"><path d="M4.847,3290.06c0,0 3052.68,-2315.99 2165.89,-949.663c-886.788,1366.33 361.721,-2750.18 885.983,-581.379c524.263,2168.8 842.613,-2466.01 996.979,-7.229c154.371,2458.78 -569.362,-634.438 315.809,-430.875c885.171,203.567 433.729,-1373.93 2089.26,-1314.42" style="fill:none;stroke:#fff;stroke-width:9.69px;"/><path d="M74.672,3322.98c0,0 3052.68,-2315.99 2165.89,-949.658c-886.788,1366.33 361.717,-2750.18 885.979,-581.383c524.267,2168.8 842.617,-2466.01 996.983,-7.229c154.367,2458.78 -569.366,-634.438 315.809,-430.871c885.171,203.562 433.725,-1373.94 2089.26,-1314.42" style="fill:none;stroke:#fff;stroke-width:9.69px;"/><path d="M129.485,3360.02c0,0 3052.68,-2315.99 2165.89,-949.662c-886.787,1366.33 361.717,-2750.18 885.98,-581.38c524.262,2168.8 842.616,-2466.02 996.983,-7.233c154.367,2458.78 -569.367,-634.433 315.804,-430.871c885.175,203.567 433.729,-1373.94 2089.27,-1314.42" style="fill:none;stroke:#fff;stroke-width:9.69px;"/></svg>