<?xml version="1.0" encoding="UTF-8" standalone="no"?><!DOCTYPE svg PUBLIC "-//W3C//DTD SVG 1.1//EN" "http://www.w3.org/Graphics/SVG/1.1/DTD/svg11.dtd"><svg width="100%" height="100%" viewBox="0 0 15191 4871" version="1.1" xmlns="http://www.w3.org/2000/svg" xmlns:xlink="http://www.w3.org/1999/xlink" xml:space="preserve" xmlns:serif="http://www.serif.com/" style="fill-rule:evenodd;clip-rule:evenodd;stroke-linejoin:round;stroke-miterlimit:2;"><g id="morph2"><path d="M41.798,1929.41c0,0 958.549,-1173.2 3081.05,-1291.81c2122.5,-118.604 3100.09,1014.61 5869.34,-212.954c2769.25,-1227.56 3185.44,545.493 6024.69,1057.92c69.176,12.485 -17.279,257.35 43.977,270.323c32.422,6.867 57.744,750.256 51.217,776.748c-271.678,1102.76 273.107,2309.82 -445.46,2225.48c-900.015,-105.632 -9568.96,46.343 -9568.96,46.343l-5061.22,67.373l5.373,-2939.43Z" style="fill:#c63e5e;"/><path d="M26.01,1717.24c0,0 747.187,-848.061 2869.69,-966.664c2122.5,-118.604 3100.09,1014.61 5869.34,-212.954c2769.25,-1227.56 3541.59,580.024 6400.74,966.277c53.509,7.229 2.355,1824.3 6.262,1874.27c20.682,264.555 -28.513,736.812 -152.971,1065.14c-79.942,210.891 -17.451,362.401 -334.409,361.344c-136.633,-0.456 -419.984,40.919 -490.838,44.494c-853.121,43.043 -14191,6.436 -14191,6.436l-2.826,-1870.66l26.01,-1267.67Z" style="fill:#1a1923;"/></g></svg>