<?xml version="1.0" encoding="UTF-8" standalone="no"?><!DOCTYPE svg PUBLIC "-//W3C//DTD SVG 1.1//EN" "http://www.w3.org/Graphics/SVG/1.1/DTD/svg11.dtd"><svg width="100%" height="100%" viewBox="0 0 15191 4871" version="1.1" xmlns="http://www.w3.org/2000/svg" xmlns:xlink="http://www.w3.org/1999/xlink" xml:space="preserve" xmlns:serif="http://www.serif.com/" style="fill-rule:evenodd;clip-rule:evenodd;stroke-linejoin:round;stroke-miterlimit:2;"><g id="morph2"><path d="M15148.6,2940.69c0,0 -958.55,1173.2 -3081.05,1291.81c-2122.5,118.603 -3100.09,-1014.61 -5869.34,212.953c-2769.25,1227.56 -3185.44,-545.493 -6024.69,-1057.92c-69.175,-12.485 17.28,-257.35 -43.977,-270.323c-32.421,-6.866 -57.743,-750.256 -51.217,-776.747c271.678,-1102.76 -273.107,-2309.82 445.46,-2225.48c900.015,105.632 9568.97,-46.344 9568.97,-46.344l5061.22,-67.372l-5.373,2939.43Z" style="fill:#c63e5e;"/><path d="M15164.3,3152.86c0,0 -747.186,848.061 -2869.69,966.665c-2122.5,118.603 -3100.09,-1014.61 -5869.34,212.954c-2769.25,1227.56 -3541.59,-580.025 -6400.74,-966.277c-53.509,-7.229 -2.356,-1824.3 -6.262,-1874.27c-20.683,-264.555 28.512,-736.813 152.971,-1065.14c79.942,-210.892 17.45,-362.402 334.409,-361.345c136.633,0.456 419.983,-40.918 490.837,-44.493c853.121,-43.044 14191,-6.437 14191,-6.437l2.827,1870.66l-26.011,1267.67Z" style="fill:#1a1923;"/></g></svg>