<?xml version="1.0" encoding="UTF-8" standalone="no"?><!DOCTYPE svg PUBLIC "-//W3C//DTD SVG 1.1//EN" "http://www.w3.org/Graphics/SVG/1.1/DTD/svg11.dtd"><svg width="100%" height="100%" viewBox="0 0 1332 1332" version="1.1" xmlns="http://www.w3.org/2000/svg" xmlns:xlink="http://www.w3.org/1999/xlink" xml:space="preserve" xmlns:serif="http://www.serif.com/" style="fill-rule:evenodd;clip-rule:evenodd;stroke-linecap:round;stroke-linejoin:round;stroke-miterlimit:1.5;"><rect id="_2" serif:id="2" x="2.083" y="2.083" width="1327.83" height="1327.83" style="fill:none;stroke:#fff;stroke-width:4.17px;"/><clipPath id="_clip1"><rect x="2.083" y="2.083" width="1327.83" height="1327.83"/></clipPath><g clip-path="url(#_clip1)"><g><path d="M-109.665,1274.81c0,0 63.532,-302.414 185.515,-157.56c121.982,144.854 88.945,88.945 167.725,-35.578c78.78,-124.523 81.322,-45.743 86.404,38.119c5.083,83.863 50.826,76.239 119.441,-111.817c68.615,-188.055 60.991,76.239 83.863,109.276c22.871,33.037 129.606,-188.056 137.23,-302.414" style="fill:none;stroke:#fff;stroke-width:4.17px;"/><path d="M-119.83,1328.17c0,0 63.532,-302.414 185.514,-157.561c121.983,144.854 88.946,88.946 167.726,-35.578c78.78,-124.523 81.321,-45.743 86.404,38.12c5.083,83.862 50.826,76.239 119.441,-111.817c68.615,-188.056 60.991,76.239 83.863,109.275c22.871,33.037 129.606,-188.055 137.23,-302.414" style="fill:none;stroke:#fff;stroke-width:4.17px;"/><path d="M-97.877,1219.69c0,0 63.383,-301.706 185.08,-157.191c121.696,144.514 88.737,88.737 167.333,-35.495c78.595,-124.232 81.131,-45.637 86.201,38.03c5.071,83.666 50.707,76.06 119.162,-111.555c68.454,-187.616 60.848,76.06 83.666,109.02c22.818,32.959 129.303,-187.616 136.909,-301.707" style="fill:none;stroke:#fff;stroke-width:4.17px;"/></g><g><path d="M865.553,101.046c0,0 -47.199,306.956 -193.643,172.973c-146.444,-133.983 -105.499,-81.068 -183.297,49.83c-77.799,130.897 -86.68,52.568 -98.77,-30.611c-12.09,-83.179 -62.24,-71.662 -123.876,121.71c-61.635,193.371 -73.515,-70.792 -101.425,-101.774c-27.911,-30.981 -225.854,227.394 -225.511,342.066" style="fill:none;stroke:#fff;stroke-width:4.17px;"/><path d="M872.721,46.967c0,0 -47.198,306.956 -193.642,172.973c-146.444,-133.983 -105.499,-81.068 -183.298,49.83c-77.799,130.897 -86.679,52.568 -98.769,-30.611c-12.09,-83.179 -62.241,-71.662 -123.876,121.71c-61.635,193.371 -73.515,-70.792 -101.426,-101.774c-27.91,-30.981 -225.854,227.394 -225.51,342.066" style="fill:none;stroke:#fff;stroke-width:4.17px;"/><path d="M856.719,157.003c0,0 -47.088,306.237 -193.189,172.568c-146.101,-133.669 -105.252,-80.878 -182.869,49.713c-77.616,130.591 -86.476,52.446 -98.538,-30.539c-12.062,-82.984 -62.094,-71.494 -123.586,121.425c-61.491,192.919 -73.343,-70.626 -101.188,-101.535c-27.845,-30.909 -225.551,226.929 -225.209,341.332" style="fill:none;stroke:#fff;stroke-width:4.17px;"/></g><g><path d="M912.038,1196.68c0,0 -97.483,262.696 -265.051,130.273c-167.568,-132.424 -122.635,-81.921 -236.747,23.971c-114.113,105.893 -115.557,36.633 -120.436,-37.198c-4.88,-73.83 -69.391,-69.118 -170.93,92.98c-101.538,162.098 -83.68,-69.558 -114.941,-99.545c-31.26,-29.988 -187.279,159.459 -201.086,259.507" style="fill:none;stroke:#fff;stroke-width:4.17px;"/><path d="M893.978,1244.54c0,0 -97.255,262.082 -264.43,129.968c-167.175,-132.114 -122.348,-81.729 -236.193,23.916c-113.845,105.644 -115.286,36.547 -120.154,-37.111c-4.868,-73.658 -69.228,-68.957 -170.529,92.762c-101.301,161.719 -83.485,-69.395 -114.672,-99.313c-31.187,-29.917 -186.841,159.086 -200.615,258.901" style="fill:none;stroke:#fff;stroke-width:4.17px;"/><path d="M927.769,1150.27c0,0 -97.482,262.697 -265.05,130.273c-167.568,-132.424 -122.635,-81.921 -236.748,23.972c-114.112,105.892 -115.556,36.633 -120.435,-37.198c-4.88,-73.831 -69.391,-69.118 -170.93,92.98c-101.538,162.098 -83.681,-69.558 -114.941,-99.546c-31.26,-29.988 -187.279,159.459 -201.086,259.508" style="fill:none;stroke:#fff;stroke-width:4.17px;"/></g><g><path d="M-196.883,217.168c0,0 97.482,-262.696 265.05,-130.272c167.568,132.424 122.635,81.92 236.748,-23.972c114.112,-105.893 115.556,-36.633 120.436,37.198c4.879,73.831 69.39,69.118 170.929,-92.98c101.538,-162.098 83.681,69.558 114.941,99.546c31.26,29.988 187.279,-159.46 201.086,-259.508" style="fill:none;stroke:#fff;stroke-width:4.17px;"/><path d="M-178.824,169.304c0,0 97.255,-262.082 264.43,-129.968c167.176,132.114 122.348,81.729 236.193,-23.915c113.845,-105.645 115.286,-36.547 120.154,37.111c4.868,73.658 69.229,68.956 170.529,-92.763c101.301,-161.718 83.485,69.395 114.672,99.313c31.187,29.918 186.841,-159.086 200.615,-258.9" style="fill:none;stroke:#fff;stroke-width:4.17px;"/><path d="M-212.615,263.572c0,0 97.483,-262.697 265.05,-130.273c167.568,132.424 122.636,81.921 236.748,-23.972c114.112,-105.892 115.556,-36.632 120.436,37.198c4.879,73.831 78.065,74.323 179.603,-87.775c101.539,-162.098 126.081,-27.802 157.341,2.186c31.26,29.987 136.205,-67.304 150.012,-167.353" style="fill:none;stroke:#fff;stroke-width:4.17px;"/></g><g><path d="M919.043,540.544c0,0 -33.935,278.138 -227.635,188.163c-193.699,-89.975 -138.284,-51.262 -224.742,78.197c-86.459,129.46 -103.918,62.421 -125.778,-8.267c-21.861,-70.689 -83.523,-51.151 -144.721,130.069c-61.199,181.219 -97.526,-48.267 -134.886,-70.192c-37.36,-21.925 -145.215,198.528 -135.455,299.052" style="fill:none;stroke:#fff;stroke-width:4.17px;"/><path d="M912.57,591.291c0,0 -33.855,277.487 -227.102,187.723c-193.246,-89.765 -137.96,-51.143 -224.216,78.014c-86.256,129.156 -103.674,62.275 -125.484,-8.249c-21.809,-70.523 -83.326,-51.031 -144.382,129.765c-61.055,180.795 -97.297,-48.154 -134.569,-70.027c-37.273,-21.874 -144.876,198.062 -135.138,298.351" style="fill:none;stroke:#fff;stroke-width:4.17px;"/><path d="M923.59,491.758c0,0 -33.935,278.138 -227.635,188.163c-193.699,-89.975 -138.284,-51.262 -224.742,78.197c-86.459,129.46 -103.918,62.421 -125.778,-8.268c-21.861,-70.689 -83.523,-51.15 -144.721,130.069c-61.199,181.22 -97.526,-48.266 -134.886,-70.191c-37.359,-21.925 -145.215,198.527 -135.455,299.052" style="fill:none;stroke:#fff;stroke-width:4.17px;"/></g><g><path d="M-203.888,873.301c0,0 33.934,-278.138 227.634,-188.163c193.7,89.975 138.284,51.262 224.743,-78.197c86.458,-129.46 103.917,-62.421 125.778,8.268c21.86,70.689 83.522,51.151 144.721,-130.069c61.198,-181.22 97.525,48.266 134.885,70.191c37.36,21.925 145.215,-198.527 135.455,-299.052" style="fill:none;stroke:#fff;stroke-width:4.17px;"/><path d="M-197.416,822.554c0,0 33.856,-277.487 227.102,-187.722c193.246,89.764 137.96,51.142 224.216,-78.014c86.256,-129.157 103.674,-62.275 125.484,8.248c21.809,70.523 83.327,51.031 144.382,-129.764c61.055,-180.796 97.297,48.153 134.569,70.026c37.273,21.874 144.876,-198.062 135.138,-298.351" style="fill:none;stroke:#fff;stroke-width:4.17px;"/><path d="M-208.435,922.087c0,0 33.934,-278.138 227.634,-188.163c193.699,89.975 138.284,51.263 224.743,-78.197c86.458,-129.459 103.917,-62.421 125.778,8.268c21.86,70.689 83.522,51.151 144.721,-130.069c61.198,-181.22 97.525,48.266 134.885,70.191c37.36,21.925 145.215,-198.527 135.455,-299.051" style="fill:none;stroke:#fff;stroke-width:4.17px;"/></g><rect id="_21" serif:id="2" x="657.261" y="2.083" width="672.65" height="1327.83" style="fill:#fff;stroke:url(#_Linear2);stroke-width:4.17px;"/></g><defs><linearGradient id="_Linear2" x1="0" y1="0" x2="1" y2="0" gradientUnits="userSpaceOnUse" gradientTransform="matrix(672.65,0,0,1327.83,657.261,665.997)"><stop offset="0" style="stop-color:#fff;stop-opacity:0"/><stop offset="0.45" style="stop-color:#fff;stop-opacity:0.29"/><stop offset="1" style="stop-color:#fff;stop-opacity:1"/></linearGradient></defs></svg>